<svg xmlns="http://www.w3.org/2000/svg" version="1.1" xmlns:xlink="http://www.w3.org/1999/xlink" xmlns:svgjs="http://svgjs.dev/svgjs" width="1000" height="1000" viewBox="0 0 1000 1000"><rect width="1000" height="1000" fill="#ffffff"></rect><g transform="matrix(0.7,0,0,0.7,149.57575757575756,282.1265587044535)"><svg viewBox="0 0 396 247" data-background-color="#ffffff" preserveAspectRatio="xMidYMid meet" height="623" width="1000" xmlns="http://www.w3.org/2000/svg" xmlns:xlink="http://www.w3.org/1999/xlink"><g id="tight-bounds" transform="matrix(1,0,0,1,0.2400000000000091,-0.09999999999999432)"><svg viewBox="0 0 395.52 247.2" height="247.2" width="395.52"><g><svg></svg></g><g><svg viewBox="0 0 395.52 247.2" height="247.2" width="395.52"><g transform="matrix(1,0,0,1,39.55199999999999,38.70449257167566)"><svg viewBox="0 0 316.416 169.79101485664867" height="169.79101485664867" width="316.416"><g><svg viewBox="0 0 316.416 169.79101485664867" height="169.79101485664867" width="316.416"><g transform="matrix(1,0,0,1,0,118.48031215394596)"><svg viewBox="0 0 316.416 51.310702702702706" height="51.310702702702706" width="316.416"><g><svg viewBox="0 0 316.416 51.310702702702706" height="51.310702702702706" width="316.416"><g><svg viewBox="0 0 316.416 51.310702702702706" height="51.310702702702706" width="316.416"><g transform="matrix(1,0,0,1,0,0)"><svg width="316.416" viewBox="1.7599999904632568 -28.90999984741211 180.63999938964844 29.299999237060547" height="51.310702702702706" data-palette-color="#740000"><path d="M26.71-8.45L24.37 0.34Q23.1 0.2 21.63 0.15 20.17 0.1 18.82 0.05 17.48 0 16.7 0L16.7 0 1.9 0 1.76-2.44 4.88-3.22Q4.98-3.47 5.03-4.57 5.08-5.66 5.13-7.3 5.18-8.94 5.18-10.74L5.18-10.74 5.18-17.87Q5.18-19.78 5.13-21.41 5.08-23.05 5.03-24.12 4.98-25.2 4.88-25.39L4.88-25.39 1.76-26.22 1.9-28.66 16.02-28.66 16.16-26.12 12.11-25.39Q12.06-25.24 11.99-24.22 11.91-23.19 11.87-21.56 11.82-19.92 11.82-17.87L11.82-17.87 11.82-10.74Q11.82-7.91 11.87-6.18 11.91-4.44 11.96-3.81L11.96-3.81Q12.79-3.66 13.7-3.61 14.6-3.56 15.87-3.56L15.87-3.56 17.72-3.56Q18.75-3.56 19.6-3.66 20.46-3.76 21-3.86L21-3.86 23.73-9.18 26.71-8.45ZM36.08 0.39L36.08 0.39Q33.84 0.39 32.2-0.59 30.56-1.56 29.71-2.93 28.85-4.3 28.85-5.52L28.85-5.52Q28.85-7.32 29.95-8.5 31.05-9.67 33.35-10.35L33.35-10.35 41.01-12.6 41.01-14.36Q41.01-15.38 40.35-16.28 39.69-17.19 38.62-17.77 37.55-18.36 36.33-18.36L36.33-18.36Q35.54-18.36 35.23-17.99 34.91-17.63 34.81-16.55L34.81-16.55 34.57-13.57Q32.13-13.09 30.59-13.75 29.05-14.4 29.05-15.92L29.05-15.92Q29.05-16.85 30.03-17.82 31-18.8 32.44-19.65 33.88-20.51 35.4-21.12 36.91-21.73 38.08-21.83L38.08-21.83Q42.38-21.83 44.94-19.85 47.51-17.87 47.51-14.55L47.51-14.55 47.36-7.76Q47.36-6.4 47.43-5.64 47.51-4.88 47.75-4.39L47.75-4.39 50.93-3.81 50.93-1.76 47.75-0.34Q46.92 0 46.16 0.2 45.41 0.39 44.72 0.39L44.72 0.39Q42.82 0.39 42.04-1.56L42.04-1.56 41.21-3.81 42.23-3.56Q40.72-1.71 39.13-0.66 37.55 0.39 36.08 0.39ZM38.57-4L38.57-4Q39.26-4 39.89-4.27 40.52-4.54 41.06-5.08L41.06-5.08 41.06-9.86 37.74-9.28Q36.57-9.08 36.03-8.5 35.5-7.91 35.5-6.98L35.5-6.98Q35.5-5.81 36.4-4.91 37.3-4 38.57-4ZM76.75 0L62.98 0 62.83-2.44 65.76-3.22Q65.86-3.42 65.91-4.44 65.96-5.47 66.01-7.1 66.06-8.74 66.06-10.74L66.06-10.74 66.11-17.92Q66.11-19.97 66.06-21.61 66.01-23.24 65.96-24.24 65.91-25.24 65.81-25.39L65.81-25.39 62.74-26.22 62.88-28.66 77.43-28.66Q78.46-28.66 79.88-28.69 81.29-28.71 82.66-28.78 84.03-28.86 84.86-28.91L84.86-28.91 86.22-21.68 83.39-21.29 81.49-25.59Q80.9-25.73 80.39-25.78 79.88-25.83 79.29-25.83L79.29-25.83 75.63-25.83Q74.8-25.83 73.99-25.76 73.19-25.68 72.65-25.59L72.65-25.59Q72.65-25.34 72.62-25.02 72.6-24.71 72.6-24.12 72.6-23.54 72.6-22.46 72.6-21.39 72.6-19.63L72.6-19.63 72.65-8.35Q72.65-7.42 72.7-6.3 72.75-5.18 72.82-4.3 72.89-3.42 72.94-3.22L72.94-3.22 76.9-2.54 76.75 0ZM82.56-9.23L79.73-9.23 79.24-12.7Q78.65-12.79 77.92-12.84 77.19-12.89 76.46-12.89L76.46-12.89 73.67-12.89Q72.8-12.89 72.09-12.82 71.38-12.74 70.79-12.7L70.79-12.7 70.79-16.16Q71.33-16.11 72.09-16.06 72.84-16.02 73.67-16.02L73.67-16.02 76.46-16.02Q77.43-16.02 78.19-16.06 78.95-16.11 79.24-16.11L79.24-16.11 79.73-19.34 82.56-19.34 82.56-9.23ZM101.5 0L87.64 0 87.49-2.25 90.52-3.08Q90.57-3.27 90.62-3.98 90.66-4.69 90.71-5.74 90.76-6.79 90.76-7.96L90.76-7.96 90.81-11.62Q90.81-13.09 90.71-14.23 90.62-15.38 90.37-16.65L90.37-16.65 87.25-17.33 87.25-19.53 95.69-21.73 97.01-20.9 96.82-17.04 96.96-16.99Q98.33-19.73 99.77-20.7 101.21-21.68 102.77-21.68L102.77-21.68Q104.09-21.68 105.07-20.95 106.04-20.21 106.04-18.65L106.04-18.65Q106.04-17.09 104.99-16.21 103.95-15.33 102.48-15.33L102.48-15.33Q101.31-15.33 100.38-15.72 99.45-16.11 98.38-17.19L98.38-17.19 99.75-17.09Q98.96-16.55 98.31-15.72 97.65-14.89 97.11-13.82L97.11-13.82 97.16-9.96Q97.21-8.15 97.26-6.71 97.3-5.27 97.35-4.32 97.4-3.37 97.4-3.08L97.4-3.08 101.65-2.34 101.5 0ZM118.59 0.39L118.59 0.39Q115.17 0.39 112.59-1 110-2.39 108.53-4.86 107.07-7.32 107.07-10.5L107.07-10.5Q107.07-14.11 108.73-16.65 110.39-19.19 113.07-20.51 115.76-21.83 118.79-21.83L118.79-21.83Q122.06-21.83 124.52-20.46 126.99-19.09 128.38-16.63 129.77-14.16 129.77-10.99L129.77-10.99Q129.77-7.76 128.26-5.2 126.75-2.64 124.23-1.12 121.72 0.39 118.59 0.39ZM119.08-2.73L119.08-2.73Q120.3-2.73 121.15-3.52 122.01-4.3 122.47-5.81 122.94-7.32 122.94-9.42L122.94-9.42Q122.94-13.62 121.59-16.26 120.25-18.9 118.01-18.9L118.01-18.9Q116.2-18.9 115.1-17.02 114-15.14 114-11.91L114-11.91Q114-9.33 114.66-7.23 115.32-5.13 116.47-3.93 117.61-2.73 119.08-2.73ZM144.86 0L132.36 0 132.21-2.25 135.24-3.08Q135.29-3.27 135.34-3.96 135.39-4.64 135.43-5.69 135.48-6.74 135.48-7.96L135.48-7.96 135.53-11.67Q135.53-13.18 135.43-14.28 135.34-15.38 135.09-16.65L135.09-16.65 131.97-17.33 131.97-19.53 140.56-21.73 141.93-20.9 141.64-18.02 141.78-17.97Q143.3-19.92 145.13-20.87 146.96-21.83 148.96-21.83L148.96-21.83Q151.06-21.83 152.72-20.8 154.38-19.78 155.33-17.8 156.28-15.82 156.28-13.04L156.28-13.04 156.28-8.01Q156.28-6.35 156.33-4.91 156.38-3.47 156.53-3.08L156.53-3.08 159.56-2.25 159.41 0 147.15 0 147.01-2.25 149.79-3.08Q149.89-3.56 149.94-4.35 149.99-5.13 150.01-6.1 150.03-7.08 150.03-7.96L150.03-7.96 150.03-12.06Q150.03-13.92 149.47-15.06 148.91-16.21 148.01-16.75 147.1-17.29 145.98-17.29L145.98-17.29Q144.76-17.29 143.69-16.75 142.61-16.21 141.78-15.19L141.78-15.19 141.78-8.01Q141.78-6.35 141.86-4.91 141.93-3.47 142.07-3.08L142.07-3.08 145-2.25 144.86 0ZM180.94-19.24L169.07-0.88 168.78-2.93 174.54-2.93Q175.47-2.93 176.3-3 177.13-3.08 177.91-3.13L177.91-3.13 179.23-7.42 182.4-7.42 181.43 0.1Q180.21 0 178.74 0 177.28 0 176.3 0L176.3 0 166.73 0Q165.71 0 164.63 0.02 163.56 0.05 162.48 0.15L162.48 0.15 162.48-2.15 174.64-20.56 174.64-18.6 169.61-18.6Q168.34-18.6 167.41-18.55 166.49-18.51 165.71-18.41L165.71-18.41 165.02-14.31 161.99-14.31 161.85-21.53Q163.17-21.48 164.58-21.46 166-21.44 166.97-21.44L166.97-21.44 176.64-21.44Q177.72-21.44 178.79-21.46 179.87-21.48 180.94-21.53L180.94-21.53 180.94-19.24Z" opacity="1" transform="matrix(1,0,0,1,0,0)" fill="#740000" class="undefined-text-0" data-fill-palette-color="primary" id="text-0"></path></svg></g></svg></g></svg></g></svg></g><g transform="matrix(1,0,0,1,97.02386604499577,0)"><svg viewBox="0 0 122.36826791000847 106.36708670270272" height="106.36708670270272" width="122.36826791000847"><g><svg xmlns="http://www.w3.org/2000/svg" xmlns:xlink="http://www.w3.org/1999/xlink" version="1.1" x="8" y="0" viewBox="4.9670000076293945 5 90.0009994506836 90" enable-background="new 0 0 100 100" xml:space="preserve" height="106.36708670270272" width="106.36826791000847" class="icon-icon-0" data-fill-palette-color="accent" id="icon-0"><g fill="#740000" data-fill-palette-color="accent"><polygon points="81.588,69.219 76.042,77.733 49.901,5 30.566,58.797 24.486,43.546 4.967,95 17.555,95 45,95 64.794,95 82.249,95    94.968,95  " fill="#740000" data-fill-palette-color="accent"></polygon></g></svg></g></svg></g><g><rect width="97.02386604499577" height="4.6272521223749195" y="100.73983458032781" x="219.39213395500423" fill="#740000" data-fill-palette-color="accent"></rect><rect width="97.02386604499577" height="4.6272521223749195" y="100.73983458032781" x="0" fill="#740000" data-fill-palette-color="accent"></rect><rect width="97.02386604499577" height="4.6272521223749195" y="91.48533033557797" x="219.39213395500423" fill="#740000" data-fill-palette-color="accent"></rect><rect width="97.02386604499577" height="4.6272521223749195" y="91.48533033557797" x="0" fill="#740000" data-fill-palette-color="accent"></rect></g></svg></g></svg></g><g><path xmlns="http://www.w3.org/2000/svg" d="M0 247.2v-247.2h395.52v247.2zM390.893 242.573v-237.946h-386.266v237.946z" fill="#740000" fill-rule="nonzero" stroke="none" stroke-width="1" stroke-linecap="butt" stroke-linejoin="miter" stroke-miterlimit="10" stroke-dasharray="" stroke-dashoffset="0" font-family="none" font-weight="none" font-size="none" text-anchor="none" style="mix-blend-mode: normal" data-fill-palette-color="tertiary"></path></g></svg></g><defs></defs></svg><rect width="395.52" height="247.2" fill="none" stroke="none" visibility="hidden"></rect></g></svg></g></svg>